<svg width="179" height="51" viewBox="0 0 179 51" fill="none" xmlns="http://www.w3.org/2000/svg">
<path d="M68.2 22.24C67.08 22.24 66.072 22.104 65.176 21.832C64.28 21.544 63.424 21.048 62.608 20.344C62.4 20.168 62.24 19.968 62.128 19.744C62.016 19.52 61.96 19.296 61.96 19.072C61.96 18.704 62.088 18.384 62.344 18.112C62.616 17.824 62.952 17.68 63.352 17.68C63.656 17.68 63.928 17.776 64.168 17.968C64.776 18.464 65.376 18.84 65.968 19.096C66.576 19.352 67.32 19.48 68.2 19.48C68.792 19.48 69.336 19.392 69.832 19.216C70.328 19.024 70.728 18.776 71.032 18.472C71.336 18.152 71.488 17.792 71.488 17.392C71.488 16.912 71.344 16.504 71.056 16.168C70.768 15.832 70.328 15.552 69.736 15.328C69.144 15.088 68.392 14.904 67.48 14.776C66.616 14.648 65.856 14.456 65.2 14.2C64.544 13.928 63.992 13.592 63.544 13.192C63.112 12.776 62.784 12.296 62.56 11.752C62.336 11.192 62.224 10.568 62.224 9.88C62.224 8.84 62.488 7.952 63.016 7.216C63.56 6.48 64.288 5.92 65.2 5.536C66.112 5.152 67.12 4.96 68.224 4.96C69.264 4.96 70.224 5.12 71.104 5.44C72 5.744 72.728 6.136 73.288 6.616C73.752 6.984 73.984 7.408 73.984 7.888C73.984 8.24 73.848 8.56 73.576 8.848C73.304 9.136 72.984 9.28 72.616 9.28C72.376 9.28 72.16 9.208 71.968 9.064C71.712 8.84 71.368 8.632 70.936 8.44C70.504 8.232 70.048 8.064 69.568 7.936C69.088 7.792 68.64 7.72 68.224 7.72C67.536 7.72 66.952 7.808 66.472 7.984C66.008 8.16 65.656 8.4 65.416 8.704C65.176 9.008 65.056 9.36 65.056 9.76C65.056 10.24 65.192 10.64 65.464 10.96C65.752 11.264 66.16 11.512 66.688 11.704C67.216 11.88 67.848 12.04 68.584 12.184C69.544 12.36 70.384 12.568 71.104 12.808C71.84 13.048 72.448 13.36 72.928 13.744C73.408 14.112 73.768 14.584 74.008 15.16C74.248 15.72 74.368 16.408 74.368 17.224C74.368 18.264 74.08 19.16 73.504 19.912C72.928 20.664 72.168 21.24 71.224 21.64C70.296 22.04 69.288 22.24 68.2 22.24ZM83.6243 8.92C84.9043 8.92 85.8483 9.232 86.4563 9.856C87.0643 10.464 87.4643 11.256 87.6563 12.232L87.2483 12.016L87.4403 11.632C87.6323 11.264 87.9283 10.872 88.3283 10.456C88.7283 10.024 89.2083 9.664 89.7683 9.376C90.3443 9.072 90.9843 8.92 91.6883 8.92C92.8403 8.92 93.7123 9.168 94.3043 9.664C94.9123 10.16 95.3283 10.824 95.5523 11.656C95.7763 12.472 95.8883 13.384 95.8883 14.392V20.536C95.8883 20.952 95.7523 21.304 95.4803 21.592C95.2083 21.864 94.8643 22 94.4483 22C94.0323 22 93.6883 21.864 93.4163 21.592C93.1443 21.304 93.0083 20.952 93.0083 20.536V14.392C93.0083 13.864 92.9443 13.392 92.8163 12.976C92.6883 12.544 92.4563 12.2 92.1203 11.944C91.7843 11.688 91.3043 11.56 90.6803 11.56C90.0723 11.56 89.5523 11.688 89.1203 11.944C88.6883 12.2 88.3603 12.544 88.1363 12.976C87.9283 13.392 87.8243 13.864 87.8243 14.392V20.536C87.8243 20.952 87.6883 21.304 87.4163 21.592C87.1443 21.864 86.8003 22 86.3843 22C85.9683 22 85.6243 21.864 85.3523 21.592C85.0803 21.304 84.9443 20.952 84.9443 20.536V14.392C84.9443 13.864 84.8803 13.392 84.7523 12.976C84.6243 12.544 84.3923 12.2 84.0563 11.944C83.7203 11.688 83.2403 11.56 82.6163 11.56C82.0083 11.56 81.4883 11.688 81.0563 11.944C80.6243 12.2 80.2963 12.544 80.0723 12.976C79.8643 13.392 79.7603 13.864 79.7603 14.392V20.536C79.7603 20.952 79.6243 21.304 79.3523 21.592C79.0803 21.864 78.7363 22 78.3203 22C77.9043 22 77.5603 21.864 77.2883 21.592C77.0163 21.304 76.8803 20.952 76.8803 20.536V10.624C76.8803 10.208 77.0163 9.864 77.2883 9.592C77.5603 9.304 77.9043 9.16 78.3203 9.16C78.7363 9.16 79.0803 9.304 79.3523 9.592C79.6243 9.864 79.7603 10.208 79.7603 10.624V11.656L79.4003 11.584C79.5443 11.312 79.7443 11.024 80.0003 10.72C80.2563 10.4 80.5683 10.104 80.9363 9.832C81.3043 9.56 81.7123 9.344 82.1603 9.184C82.6083 9.008 83.0963 8.92 83.6243 8.92ZM109.517 8.92C109.933 8.92 110.277 9.056 110.549 9.328C110.821 9.6 110.957 9.952 110.957 10.384V20.536C110.957 20.952 110.821 21.304 110.549 21.592C110.277 21.864 109.933 22 109.517 22C109.101 22 108.757 21.864 108.485 21.592C108.213 21.304 108.077 20.952 108.077 20.536V19.36L108.605 19.576C108.605 19.784 108.493 20.04 108.269 20.344C108.045 20.632 107.741 20.92 107.357 21.208C106.973 21.496 106.517 21.744 105.989 21.952C105.477 22.144 104.917 22.24 104.309 22.24C103.205 22.24 102.205 21.96 101.309 21.4C100.413 20.824 99.7013 20.04 99.1733 19.048C98.6613 18.04 98.4053 16.888 98.4053 15.592C98.4053 14.28 98.6613 13.128 99.1733 12.136C99.7013 11.128 100.405 10.344 101.285 9.784C102.165 9.208 103.141 8.92 104.213 8.92C104.901 8.92 105.533 9.024 106.109 9.232C106.685 9.44 107.181 9.704 107.597 10.024C108.029 10.344 108.357 10.672 108.581 11.008C108.821 11.328 108.941 11.6 108.941 11.824L108.077 12.136V10.384C108.077 9.968 108.213 9.624 108.485 9.352C108.757 9.064 109.101 8.92 109.517 8.92ZM104.669 19.6C105.373 19.6 105.989 19.424 106.517 19.072C107.045 18.72 107.453 18.24 107.741 17.632C108.045 17.024 108.197 16.344 108.197 15.592C108.197 14.824 108.045 14.136 107.741 13.528C107.453 12.92 107.045 12.44 106.517 12.088C105.989 11.736 105.373 11.56 104.669 11.56C103.981 11.56 103.373 11.736 102.845 12.088C102.317 12.44 101.901 12.92 101.597 13.528C101.309 14.136 101.165 14.824 101.165 15.592C101.165 16.344 101.309 17.024 101.597 17.632C101.901 18.24 102.317 18.72 102.845 19.072C103.373 19.424 103.981 19.6 104.669 19.6ZM115.516 22C115.1 22 114.756 21.864 114.484 21.592C114.212 21.304 114.076 20.952 114.076 20.536V10.624C114.076 10.208 114.212 9.864 114.484 9.592C114.756 9.304 115.1 9.16 115.516 9.16C115.932 9.16 116.276 9.304 116.548 9.592C116.82 9.864 116.956 10.208 116.956 10.624V12.88L116.788 11.272C116.964 10.888 117.188 10.552 117.46 10.264C117.748 9.96 118.068 9.712 118.42 9.52C118.772 9.312 119.148 9.16 119.548 9.064C119.948 8.968 120.348 8.92 120.748 8.92C121.228 8.92 121.628 9.056 121.948 9.328C122.284 9.6 122.452 9.92 122.452 10.288C122.452 10.816 122.316 11.2 122.044 11.44C121.772 11.664 121.476 11.776 121.156 11.776C120.852 11.776 120.572 11.72 120.316 11.608C120.076 11.496 119.796 11.44 119.476 11.44C119.188 11.44 118.892 11.512 118.588 11.656C118.3 11.784 118.028 11.992 117.772 12.28C117.532 12.568 117.332 12.928 117.172 13.36C117.028 13.776 116.956 14.272 116.956 14.848V20.536C116.956 20.952 116.82 21.304 116.548 21.592C116.276 21.864 115.932 22 115.516 22ZM124.626 9.4H130.314C130.698 9.4 131.018 9.528 131.274 9.784C131.53 10.04 131.658 10.36 131.658 10.744C131.658 11.112 131.53 11.424 131.274 11.68C131.018 11.92 130.698 12.04 130.314 12.04H124.626C124.242 12.04 123.922 11.912 123.666 11.656C123.41 11.4 123.282 11.08 123.282 10.696C123.282 10.328 123.41 10.024 123.666 9.784C123.922 9.528 124.242 9.4 124.626 9.4ZM127.194 6.4C127.61 6.4 127.946 6.544 128.202 6.832C128.474 7.104 128.61 7.448 128.61 7.864V18.544C128.61 18.768 128.65 18.952 128.73 19.096C128.826 19.24 128.946 19.344 129.09 19.408C129.25 19.472 129.418 19.504 129.594 19.504C129.786 19.504 129.962 19.472 130.122 19.408C130.282 19.328 130.466 19.288 130.674 19.288C130.898 19.288 131.098 19.392 131.274 19.6C131.466 19.808 131.562 20.096 131.562 20.464C131.562 20.912 131.314 21.28 130.818 21.568C130.338 21.856 129.818 22 129.258 22C128.922 22 128.546 21.976 128.13 21.928C127.73 21.864 127.346 21.728 126.978 21.52C126.626 21.296 126.33 20.96 126.09 20.512C125.85 20.064 125.73 19.448 125.73 18.664V7.864C125.73 7.448 125.866 7.104 126.138 6.832C126.426 6.544 126.778 6.4 127.194 6.4Z" fill="white"/>
<path d="M73.072 28.24C73.488 28.24 73.832 28.376 74.104 28.648C74.376 28.92 74.512 29.272 74.512 29.704V44.536C74.512 44.952 74.376 45.304 74.104 45.592C73.832 45.864 73.488 46 73.072 46C72.656 46 72.312 45.864 72.04 45.592C71.768 45.304 71.632 44.952 71.632 44.536V43.36L72.16 43.576C72.16 43.784 72.048 44.04 71.824 44.344C71.6 44.632 71.296 44.92 70.912 45.208C70.528 45.496 70.072 45.744 69.544 45.952C69.032 46.144 68.472 46.24 67.864 46.24C66.76 46.24 65.76 45.96 64.864 45.4C63.968 44.824 63.256 44.04 62.728 43.048C62.216 42.04 61.96 40.888 61.96 39.592C61.96 38.28 62.216 37.128 62.728 36.136C63.256 35.128 63.96 34.344 64.84 33.784C65.72 33.208 66.696 32.92 67.768 32.92C68.456 32.92 69.088 33.024 69.664 33.232C70.24 33.44 70.736 33.704 71.152 34.024C71.584 34.344 71.912 34.672 72.136 35.008C72.376 35.328 72.496 35.6 72.496 35.824L71.632 36.136V29.704C71.632 29.288 71.768 28.944 72.04 28.672C72.312 28.384 72.656 28.24 73.072 28.24ZM68.224 43.6C68.928 43.6 69.544 43.424 70.072 43.072C70.6 42.72 71.008 42.24 71.296 41.632C71.6 41.024 71.752 40.344 71.752 39.592C71.752 38.824 71.6 38.136 71.296 37.528C71.008 36.92 70.6 36.44 70.072 36.088C69.544 35.736 68.928 35.56 68.224 35.56C67.536 35.56 66.928 35.736 66.4 36.088C65.872 36.44 65.456 36.92 65.152 37.528C64.864 38.136 64.72 38.824 64.72 39.592C64.72 40.344 64.864 41.024 65.152 41.632C65.456 42.24 65.872 42.72 66.4 43.072C66.928 43.424 67.536 43.6 68.224 43.6ZM80.3423 44.536C80.3423 44.952 80.2063 45.304 79.9343 45.592C79.6623 45.864 79.3183 46 78.9023 46C78.4863 46 78.1423 45.864 77.8703 45.592C77.5983 45.304 77.4623 44.952 77.4623 44.536V34.624C77.4623 34.208 77.5983 33.864 77.8703 33.592C78.1423 33.304 78.4863 33.16 78.9023 33.16C79.3183 33.16 79.6623 33.304 79.9343 33.592C80.2063 33.864 80.3423 34.208 80.3423 34.624V44.536ZM78.8783 31.6C78.3343 31.6 77.9503 31.512 77.7263 31.336C77.5023 31.16 77.3903 30.848 77.3903 30.4V29.944C77.3903 29.48 77.5103 29.168 77.7503 29.008C78.0063 28.832 78.3903 28.744 78.9023 28.744C79.4623 28.744 79.8543 28.832 80.0783 29.008C80.3023 29.184 80.4143 29.496 80.4143 29.944V30.4C80.4143 30.864 80.2943 31.184 80.0543 31.36C79.8143 31.52 79.4223 31.6 78.8783 31.6ZM89.0142 32.92C89.9262 32.92 90.7182 33.016 91.3902 33.208C92.0782 33.4 92.6062 33.672 92.9742 34.024C93.3582 34.36 93.5502 34.768 93.5502 35.248C93.5502 35.568 93.4542 35.872 93.2622 36.16C93.0702 36.432 92.7902 36.568 92.4222 36.568C92.1662 36.568 91.9502 36.536 91.7742 36.472C91.6142 36.392 91.4702 36.296 91.3422 36.184C91.2142 36.072 91.0622 35.968 90.8862 35.872C90.7262 35.776 90.4782 35.704 90.1422 35.656C89.8222 35.592 89.5822 35.56 89.4222 35.56C88.6062 35.56 87.9102 35.736 87.3342 36.088C86.7742 36.44 86.3422 36.92 86.0382 37.528C85.7342 38.12 85.5822 38.808 85.5822 39.592C85.5822 40.36 85.7342 41.048 86.0382 41.656C86.3582 42.248 86.7902 42.72 87.3342 43.072C87.8942 43.424 88.5342 43.6 89.2542 43.6C89.6542 43.6 89.9982 43.576 90.2862 43.528C90.5742 43.48 90.8142 43.408 91.0062 43.312C91.2302 43.184 91.4302 43.048 91.6062 42.904C91.7822 42.76 92.0462 42.688 92.3982 42.688C92.8142 42.688 93.1342 42.824 93.3582 43.096C93.5822 43.352 93.6942 43.672 93.6942 44.056C93.6942 44.456 93.4702 44.824 93.0222 45.16C92.5742 45.48 91.9822 45.744 91.2462 45.952C90.5262 46.144 89.7422 46.24 88.8942 46.24C87.6302 46.24 86.5342 45.952 85.6062 45.376C84.6782 44.784 83.9582 43.984 83.4462 42.976C82.9502 41.968 82.7022 40.84 82.7022 39.592C82.7022 38.28 82.9662 37.128 83.4942 36.136C84.0382 35.128 84.7822 34.344 85.7262 33.784C86.6862 33.208 87.7822 32.92 89.0142 32.92ZM95.9149 33.4H101.603C101.987 33.4 102.307 33.528 102.563 33.784C102.819 34.04 102.947 34.36 102.947 34.744C102.947 35.112 102.819 35.424 102.563 35.68C102.307 35.92 101.987 36.04 101.603 36.04H95.9149C95.5309 36.04 95.2109 35.912 94.9549 35.656C94.6989 35.4 94.5709 35.08 94.5709 34.696C94.5709 34.328 94.6989 34.024 94.9549 33.784C95.2109 33.528 95.5309 33.4 95.9149 33.4ZM98.4829 30.4C98.8989 30.4 99.2349 30.544 99.4909 30.832C99.7629 31.104 99.8989 31.448 99.8989 31.864V42.544C99.8989 42.768 99.9389 42.952 100.019 43.096C100.115 43.24 100.235 43.344 100.379 43.408C100.539 43.472 100.707 43.504 100.883 43.504C101.075 43.504 101.251 43.472 101.411 43.408C101.571 43.328 101.755 43.288 101.963 43.288C102.187 43.288 102.387 43.392 102.563 43.6C102.755 43.808 102.851 44.096 102.851 44.464C102.851 44.912 102.603 45.28 102.107 45.568C101.627 45.856 101.107 46 100.547 46C100.211 46 99.8349 45.976 99.4189 45.928C99.0189 45.864 98.6349 45.728 98.2669 45.52C97.9149 45.296 97.6189 44.96 97.3789 44.512C97.1389 44.064 97.0189 43.448 97.0189 42.664V31.864C97.0189 31.448 97.1549 31.104 97.4269 30.832C97.7149 30.544 98.0669 30.4 98.4829 30.4ZM108.303 44.536C108.303 44.952 108.167 45.304 107.895 45.592C107.623 45.864 107.279 46 106.863 46C106.447 46 106.103 45.864 105.831 45.592C105.559 45.304 105.423 44.952 105.423 44.536V34.624C105.423 34.208 105.559 33.864 105.831 33.592C106.103 33.304 106.447 33.16 106.863 33.16C107.279 33.16 107.623 33.304 107.895 33.592C108.167 33.864 108.303 34.208 108.303 34.624V44.536ZM106.839 31.6C106.295 31.6 105.911 31.512 105.687 31.336C105.463 31.16 105.351 30.848 105.351 30.4V29.944C105.351 29.48 105.471 29.168 105.711 29.008C105.967 28.832 106.351 28.744 106.863 28.744C107.423 28.744 107.815 28.832 108.039 29.008C108.263 29.184 108.375 29.496 108.375 29.944V30.4C108.375 30.864 108.255 31.184 108.015 31.36C107.775 31.52 107.383 31.6 106.839 31.6ZM123.719 39.592C123.719 40.904 123.423 42.064 122.831 43.072C122.255 44.064 121.471 44.84 120.479 45.4C119.503 45.96 118.407 46.24 117.191 46.24C115.975 46.24 114.871 45.96 113.879 45.4C112.903 44.84 112.119 44.064 111.527 43.072C110.951 42.064 110.663 40.904 110.663 39.592C110.663 38.28 110.951 37.128 111.527 36.136C112.119 35.128 112.903 34.344 113.879 33.784C114.871 33.208 115.975 32.92 117.191 32.92C118.407 32.92 119.503 33.208 120.479 33.784C121.471 34.344 122.255 35.128 122.831 36.136C123.423 37.128 123.719 38.28 123.719 39.592ZM120.839 39.592C120.839 38.776 120.671 38.072 120.335 37.48C120.015 36.872 119.575 36.4 119.015 36.064C118.471 35.728 117.863 35.56 117.191 35.56C116.519 35.56 115.903 35.728 115.343 36.064C114.799 36.4 114.359 36.872 114.023 37.48C113.703 38.072 113.543 38.776 113.543 39.592C113.543 40.392 113.703 41.096 114.023 41.704C114.359 42.296 114.799 42.76 115.343 43.096C115.903 43.432 116.519 43.6 117.191 43.6C117.863 43.6 118.471 43.432 119.015 43.096C119.575 42.76 120.015 42.296 120.335 41.704C120.671 41.096 120.839 40.392 120.839 39.592ZM133.104 32.92C134.288 32.92 135.184 33.168 135.792 33.664C136.416 34.16 136.84 34.824 137.064 35.656C137.304 36.472 137.424 37.384 137.424 38.392V44.536C137.424 44.952 137.288 45.304 137.016 45.592C136.744 45.864 136.4 46 135.984 46C135.568 46 135.224 45.864 134.952 45.592C134.68 45.304 134.544 44.952 134.544 44.536V38.392C134.544 37.864 134.472 37.392 134.328 36.976C134.2 36.544 133.96 36.2 133.608 35.944C133.256 35.688 132.752 35.56 132.096 35.56C131.456 35.56 130.912 35.688 130.464 35.944C130.032 36.2 129.696 36.544 129.456 36.976C129.232 37.392 129.12 37.864 129.12 38.392V44.536C129.12 44.952 128.984 45.304 128.712 45.592C128.44 45.864 128.096 46 127.68 46C127.264 46 126.92 45.864 126.648 45.592C126.376 45.304 126.24 44.952 126.24 44.536V34.624C126.24 34.208 126.376 33.864 126.648 33.592C126.92 33.304 127.264 33.16 127.68 33.16C128.096 33.16 128.44 33.304 128.712 33.592C128.984 33.864 129.12 34.208 129.12 34.624V35.656L128.76 35.584C128.904 35.312 129.112 35.024 129.384 34.72C129.656 34.4 129.976 34.104 130.344 33.832C130.712 33.56 131.128 33.344 131.592 33.184C132.056 33.008 132.56 32.92 133.104 32.92ZM151.049 32.92C151.465 32.92 151.809 33.056 152.081 33.328C152.353 33.6 152.489 33.952 152.489 34.384V44.536C152.489 44.952 152.353 45.304 152.081 45.592C151.809 45.864 151.465 46 151.049 46C150.633 46 150.289 45.864 150.017 45.592C149.745 45.304 149.609 44.952 149.609 44.536V43.36L150.137 43.576C150.137 43.784 150.025 44.04 149.801 44.344C149.577 44.632 149.273 44.92 148.889 45.208C148.505 45.496 148.049 45.744 147.521 45.952C147.009 46.144 146.449 46.24 145.841 46.24C144.737 46.24 143.737 45.96 142.841 45.4C141.945 44.824 141.233 44.04 140.705 43.048C140.193 42.04 139.937 40.888 139.937 39.592C139.937 38.28 140.193 37.128 140.705 36.136C141.233 35.128 141.937 34.344 142.817 33.784C143.697 33.208 144.673 32.92 145.745 32.92C146.433 32.92 147.065 33.024 147.641 33.232C148.217 33.44 148.713 33.704 149.129 34.024C149.561 34.344 149.889 34.672 150.113 35.008C150.353 35.328 150.473 35.6 150.473 35.824L149.609 36.136V34.384C149.609 33.968 149.745 33.624 150.017 33.352C150.289 33.064 150.633 32.92 151.049 32.92ZM146.201 43.6C146.905 43.6 147.521 43.424 148.049 43.072C148.577 42.72 148.985 42.24 149.273 41.632C149.577 41.024 149.729 40.344 149.729 39.592C149.729 38.824 149.577 38.136 149.273 37.528C148.985 36.92 148.577 36.44 148.049 36.088C147.521 35.736 146.905 35.56 146.201 35.56C145.513 35.56 144.905 35.736 144.377 36.088C143.849 36.44 143.433 36.92 143.129 37.528C142.841 38.136 142.697 38.824 142.697 39.592C142.697 40.344 142.841 41.024 143.129 41.632C143.433 42.24 143.849 42.72 144.377 43.072C144.905 43.424 145.513 43.6 146.201 43.6ZM157.047 46C156.631 46 156.287 45.864 156.015 45.592C155.743 45.304 155.607 44.952 155.607 44.536V34.624C155.607 34.208 155.743 33.864 156.015 33.592C156.287 33.304 156.631 33.16 157.047 33.16C157.463 33.16 157.807 33.304 158.079 33.592C158.351 33.864 158.487 34.208 158.487 34.624V36.88L158.319 35.272C158.495 34.888 158.719 34.552 158.991 34.264C159.279 33.96 159.599 33.712 159.951 33.52C160.303 33.312 160.679 33.16 161.079 33.064C161.479 32.968 161.879 32.92 162.279 32.92C162.759 32.92 163.159 33.056 163.479 33.328C163.815 33.6 163.983 33.92 163.983 34.288C163.983 34.816 163.847 35.2 163.575 35.44C163.303 35.664 163.007 35.776 162.687 35.776C162.383 35.776 162.103 35.72 161.847 35.608C161.607 35.496 161.327 35.44 161.007 35.44C160.719 35.44 160.423 35.512 160.119 35.656C159.831 35.784 159.559 35.992 159.303 36.28C159.063 36.568 158.863 36.928 158.703 37.36C158.559 37.776 158.487 38.272 158.487 38.848V44.536C158.487 44.952 158.351 45.304 158.079 45.592C157.807 45.864 157.463 46 157.047 46ZM175.541 33.16C175.957 33.16 176.301 33.304 176.573 33.592C176.845 33.864 176.981 34.208 176.981 34.624V44.824C176.981 46.296 176.701 47.464 176.141 48.328C175.597 49.208 174.861 49.84 173.933 50.224C173.005 50.608 171.965 50.8 170.813 50.8C170.301 50.8 169.757 50.76 169.181 50.68C168.605 50.6 168.133 50.48 167.765 50.32C167.285 50.112 166.949 49.848 166.757 49.528C166.581 49.224 166.549 48.896 166.661 48.544C166.805 48.08 167.037 47.76 167.357 47.584C167.677 47.424 168.013 47.408 168.365 47.536C168.621 47.616 168.957 47.736 169.373 47.896C169.789 48.072 170.269 48.16 170.813 48.16C171.549 48.16 172.157 48.056 172.637 47.848C173.133 47.656 173.501 47.32 173.741 46.84C173.997 46.376 174.125 45.736 174.125 44.92V43.312L174.629 43.888C174.357 44.416 174.013 44.856 173.597 45.208C173.197 45.544 172.717 45.8 172.157 45.976C171.597 46.152 170.957 46.24 170.237 46.24C169.389 46.24 168.645 46.048 168.005 45.664C167.381 45.264 166.893 44.72 166.541 44.032C166.189 43.328 166.013 42.528 166.013 41.632V34.624C166.013 34.208 166.149 33.864 166.421 33.592C166.693 33.304 167.037 33.16 167.453 33.16C167.869 33.16 168.213 33.304 168.485 33.592C168.757 33.864 168.893 34.208 168.893 34.624V40.768C168.893 41.808 169.117 42.544 169.565 42.976C170.029 43.392 170.669 43.6 171.485 43.6C172.045 43.6 172.517 43.496 172.901 43.288C173.285 43.064 173.581 42.744 173.789 42.328C173.997 41.896 174.101 41.376 174.101 40.768V34.624C174.101 34.208 174.237 33.864 174.509 33.592C174.781 33.304 175.125 33.16 175.541 33.16Z" fill="#F2554C"/>
<path d="M22.75 2C25.5625 2 28 4.4375 28 7.25V44.75C28 47.6562 25.5625 50 22.75 50C20.0312 50 17.7812 48.0312 17.5 45.3125C17.0312 45.5 16.4688 45.5 16 45.5C12.625 45.5 10 42.875 10 39.5C10 38.8438 10.0938 38.1875 10.2812 37.5312C7.46875 36.5 5.5 33.7812 5.5 30.5C5.5 27.5938 7.1875 24.9688 9.71875 23.75C8.96875 22.7188 8.5 21.4062 8.5 20C8.5 17.1875 10.4688 14.75 13.1875 14.1875C13 13.625 13 13.0625 13 12.5C13 9.78125 14.875 7.34375 17.5 6.6875C17.7812 4.0625 20.0312 2 22.75 2ZM36.25 2C38.875 2 41.125 4.0625 41.4062 6.6875C44.0312 7.34375 46 9.6875 46 12.5C46 13.0625 45.9062 13.625 45.7188 14.1875C48.4375 14.75 50.5 17.1875 50.5 20C50.5 21.4062 49.9375 22.7188 49.1875 23.75C51.7188 24.9688 53.5 27.5938 53.5 30.5C53.5 33.7812 51.4375 36.5 48.625 37.5312C48.8125 38.1875 49 38.8438 49 39.5C49 42.875 46.2812 45.5 43 45.5C42.4375 45.5 41.875 45.5 41.4062 45.3125C41.125 48.0312 38.875 50 36.25 50C33.3438 50 31 47.6562 31 44.75V7.25C31 4.4375 33.3438 2 36.25 2Z" fill="#F2554C"/>
</svg>
