<svg width="133" height="51" viewBox="0 0 133 51" fill="none" xmlns="http://www.w3.org/2000/svg">
<path d="M58.8 23.16C58.0533 23.16 57.3813 23.0693 56.784 22.888C56.1867 22.696 55.616 22.3653 55.072 21.896C54.9333 21.7787 54.8267 21.6453 54.752 21.496C54.6773 21.3467 54.64 21.1973 54.64 21.048C54.64 20.8027 54.7253 20.5893 54.896 20.408C55.0773 20.216 55.3013 20.12 55.568 20.12C55.7707 20.12 55.952 20.184 56.112 20.312C56.5173 20.6427 56.9173 20.8933 57.312 21.064C57.7173 21.2347 58.2133 21.32 58.8 21.32C59.1947 21.32 59.5573 21.2613 59.888 21.144C60.2187 21.016 60.4853 20.8507 60.688 20.648C60.8907 20.4347 60.992 20.1947 60.992 19.928C60.992 19.608 60.896 19.336 60.704 19.112C60.512 18.888 60.2187 18.7013 59.824 18.552C59.4293 18.392 58.928 18.2693 58.32 18.184C57.744 18.0987 57.2373 17.9707 56.8 17.8C56.3627 17.6187 55.9947 17.3947 55.696 17.128C55.408 16.8507 55.1893 16.5307 55.04 16.168C54.8907 15.7947 54.816 15.3787 54.816 14.92C54.816 14.2267 54.992 13.6347 55.344 13.144C55.7067 12.6533 56.192 12.28 56.8 12.024C57.408 11.768 58.08 11.64 58.816 11.64C59.5093 11.64 60.1493 11.7467 60.736 11.96C61.3333 12.1627 61.8187 12.424 62.192 12.744C62.5013 12.9893 62.656 13.272 62.656 13.592C62.656 13.8267 62.5653 14.04 62.384 14.232C62.2027 14.424 61.9893 14.52 61.744 14.52C61.584 14.52 61.44 14.472 61.312 14.376C61.1413 14.2267 60.912 14.088 60.624 13.96C60.336 13.8213 60.032 13.7093 59.712 13.624C59.392 13.528 59.0933 13.48 58.816 13.48C58.3573 13.48 57.968 13.5387 57.648 13.656C57.3387 13.7733 57.104 13.9333 56.944 14.136C56.784 14.3387 56.704 14.5733 56.704 14.84C56.704 15.16 56.7947 15.4267 56.976 15.64C57.168 15.8427 57.44 16.008 57.792 16.136C58.144 16.2533 58.5653 16.36 59.056 16.456C59.696 16.5733 60.256 16.712 60.736 16.872C61.2267 17.032 61.632 17.24 61.952 17.496C62.272 17.7413 62.512 18.056 62.672 18.44C62.832 18.8133 62.912 19.272 62.912 19.816C62.912 20.5093 62.72 21.1067 62.336 21.608C61.952 22.1093 61.4453 22.4933 60.816 22.76C60.1973 23.0267 59.5253 23.16 58.8 23.16ZM69.0829 14.28C69.9362 14.28 70.5655 14.488 70.9709 14.904C71.3762 15.3093 71.6429 15.8373 71.7709 16.488L71.4989 16.344L71.6269 16.088C71.7549 15.8427 71.9522 15.5813 72.2189 15.304C72.4855 15.016 72.8055 14.776 73.1789 14.584C73.5629 14.3813 73.9895 14.28 74.4589 14.28C75.2269 14.28 75.8082 14.4453 76.2029 14.776C76.6082 15.1067 76.8855 15.5493 77.0349 16.104C77.1842 16.648 77.2589 17.256 77.2589 17.928V22.024C77.2589 22.3013 77.1682 22.536 76.9869 22.728C76.8055 22.9093 76.5762 23 76.2989 23C76.0215 23 75.7922 22.9093 75.6109 22.728C75.4295 22.536 75.3389 22.3013 75.3389 22.024V17.928C75.3389 17.576 75.2962 17.2613 75.2109 16.984C75.1255 16.696 74.9709 16.4667 74.7469 16.296C74.5229 16.1253 74.2029 16.04 73.7869 16.04C73.3815 16.04 73.0349 16.1253 72.7469 16.296C72.4589 16.4667 72.2402 16.696 72.0909 16.984C71.9522 17.2613 71.8829 17.576 71.8829 17.928V22.024C71.8829 22.3013 71.7922 22.536 71.6109 22.728C71.4295 22.9093 71.2002 23 70.9229 23C70.6455 23 70.4162 22.9093 70.2349 22.728C70.0535 22.536 69.9629 22.3013 69.9629 22.024V17.928C69.9629 17.576 69.9202 17.2613 69.8349 16.984C69.7495 16.696 69.5949 16.4667 69.3709 16.296C69.1469 16.1253 68.8269 16.04 68.4109 16.04C68.0055 16.04 67.6589 16.1253 67.3709 16.296C67.0829 16.4667 66.8642 16.696 66.7149 16.984C66.5762 17.2613 66.5069 17.576 66.5069 17.928V22.024C66.5069 22.3013 66.4162 22.536 66.2349 22.728C66.0535 22.9093 65.8242 23 65.5469 23C65.2695 23 65.0402 22.9093 64.8589 22.728C64.6775 22.536 64.5869 22.3013 64.5869 22.024V15.416C64.5869 15.1387 64.6775 14.9093 64.8589 14.728C65.0402 14.536 65.2695 14.44 65.5469 14.44C65.8242 14.44 66.0535 14.536 66.2349 14.728C66.4162 14.9093 66.5069 15.1387 66.5069 15.416V16.104L66.2669 16.056C66.3629 15.8747 66.4962 15.6827 66.6669 15.48C66.8375 15.2667 67.0455 15.0693 67.2909 14.888C67.5362 14.7067 67.8082 14.5627 68.1069 14.456C68.4055 14.3387 68.7309 14.28 69.0829 14.28ZM86.3449 14.28C86.6222 14.28 86.8515 14.3707 87.0329 14.552C87.2142 14.7333 87.3049 14.968 87.3049 15.256V22.024C87.3049 22.3013 87.2142 22.536 87.0329 22.728C86.8515 22.9093 86.6222 23 86.3449 23C86.0675 23 85.8382 22.9093 85.6569 22.728C85.4755 22.536 85.3849 22.3013 85.3849 22.024V21.24L85.7369 21.384C85.7369 21.5227 85.6622 21.6933 85.5129 21.896C85.3635 22.088 85.1609 22.28 84.9049 22.472C84.6489 22.664 84.3449 22.8293 83.9929 22.968C83.6515 23.096 83.2782 23.16 82.8729 23.16C82.1369 23.16 81.4702 22.9733 80.8729 22.6C80.2755 22.216 79.8009 21.6933 79.4489 21.032C79.1075 20.36 78.9369 19.592 78.9369 18.728C78.9369 17.8533 79.1075 17.0853 79.4489 16.424C79.8009 15.752 80.2702 15.2293 80.8569 14.856C81.4435 14.472 82.0942 14.28 82.8089 14.28C83.2675 14.28 83.6889 14.3493 84.0729 14.488C84.4569 14.6267 84.7875 14.8027 85.0649 15.016C85.3529 15.2293 85.5715 15.448 85.7209 15.672C85.8809 15.8853 85.9609 16.0667 85.9609 16.216L85.3849 16.424V15.256C85.3849 14.9787 85.4755 14.7493 85.6569 14.568C85.8382 14.376 86.0675 14.28 86.3449 14.28ZM83.1129 21.4C83.5822 21.4 83.9929 21.2827 84.3449 21.048C84.6969 20.8133 84.9689 20.4933 85.1609 20.088C85.3635 19.6827 85.4649 19.2293 85.4649 18.728C85.4649 18.216 85.3635 17.7573 85.1609 17.352C84.9689 16.9467 84.6969 16.6267 84.3449 16.392C83.9929 16.1573 83.5822 16.04 83.1129 16.04C82.6542 16.04 82.2489 16.1573 81.8969 16.392C81.5449 16.6267 81.2675 16.9467 81.0649 17.352C80.8729 17.7573 80.7769 18.216 80.7769 18.728C80.7769 19.2293 80.8729 19.6827 81.0649 20.088C81.2675 20.4933 81.5449 20.8133 81.8969 21.048C82.2489 21.2827 82.6542 21.4 83.1129 21.4ZM90.3438 23C90.0664 23 89.8371 22.9093 89.6558 22.728C89.4744 22.536 89.3838 22.3013 89.3838 22.024V15.416C89.3838 15.1387 89.4744 14.9093 89.6558 14.728C89.8371 14.536 90.0664 14.44 90.3438 14.44C90.6211 14.44 90.8504 14.536 91.0318 14.728C91.2131 14.9093 91.3038 15.1387 91.3038 15.416V16.92L91.1918 15.848C91.3091 15.592 91.4584 15.368 91.6398 15.176C91.8318 14.9733 92.0451 14.808 92.2798 14.68C92.5144 14.5413 92.7651 14.44 93.0318 14.376C93.2984 14.312 93.5651 14.28 93.8318 14.28C94.1518 14.28 94.4184 14.3707 94.6318 14.552C94.8558 14.7333 94.9678 14.9467 94.9678 15.192C94.9678 15.544 94.8771 15.8 94.6958 15.96C94.5144 16.1093 94.3171 16.184 94.1038 16.184C93.9011 16.184 93.7144 16.1467 93.5438 16.072C93.3838 15.9973 93.1971 15.96 92.9838 15.96C92.7918 15.96 92.5944 16.008 92.3918 16.104C92.1998 16.1893 92.0184 16.328 91.8478 16.52C91.6878 16.712 91.5544 16.952 91.4478 17.24C91.3518 17.5173 91.3038 17.848 91.3038 18.232V22.024C91.3038 22.3013 91.2131 22.536 91.0318 22.728C90.8504 22.9093 90.6211 23 90.3438 23ZM96.4173 14.6H100.209C100.465 14.6 100.679 14.6853 100.849 14.856C101.02 15.0267 101.105 15.24 101.105 15.496C101.105 15.7413 101.02 15.9493 100.849 16.12C100.679 16.28 100.465 16.36 100.209 16.36H96.4173C96.1613 16.36 95.9479 16.2747 95.7773 16.104C95.6066 15.9333 95.5213 15.72 95.5213 15.464C95.5213 15.2187 95.6066 15.016 95.7773 14.856C95.9479 14.6853 96.1613 14.6 96.4173 14.6ZM98.1293 12.6C98.4066 12.6 98.6306 12.696 98.8013 12.888C98.9826 13.0693 99.0733 13.2987 99.0733 13.576V20.696C99.0733 20.8453 99.0999 20.968 99.1533 21.064C99.2173 21.16 99.2973 21.2293 99.3932 21.272C99.4999 21.3147 99.6119 21.336 99.7293 21.336C99.8573 21.336 99.9746 21.3147 100.081 21.272C100.188 21.2187 100.311 21.192 100.449 21.192C100.599 21.192 100.732 21.2613 100.849 21.4C100.977 21.5387 101.041 21.7307 101.041 21.976C101.041 22.2747 100.876 22.52 100.545 22.712C100.225 22.904 99.8786 23 99.5052 23C99.2813 23 99.0306 22.984 98.7533 22.952C98.4866 22.9093 98.2306 22.8187 97.9853 22.68C97.7506 22.5307 97.5532 22.3067 97.3932 22.008C97.2333 21.7093 97.1533 21.2987 97.1533 20.776V13.576C97.1533 13.2987 97.2439 13.0693 97.4253 12.888C97.6173 12.696 97.8519 12.6 98.1293 12.6Z" fill="#183153"/>
<path d="M62.048 27.16C62.3253 27.16 62.5547 27.2507 62.736 27.432C62.9173 27.6133 63.008 27.848 63.008 28.136V38.024C63.008 38.3013 62.9173 38.536 62.736 38.728C62.5547 38.9093 62.3253 39 62.048 39C61.7707 39 61.5413 38.9093 61.36 38.728C61.1787 38.536 61.088 38.3013 61.088 38.024V37.24L61.44 37.384C61.44 37.5227 61.3653 37.6933 61.216 37.896C61.0667 38.088 60.864 38.28 60.608 38.472C60.352 38.664 60.048 38.8293 59.696 38.968C59.3547 39.096 58.9813 39.16 58.576 39.16C57.84 39.16 57.1733 38.9733 56.576 38.6C55.9787 38.216 55.504 37.6933 55.152 37.032C54.8107 36.36 54.64 35.592 54.64 34.728C54.64 33.8533 54.8107 33.0853 55.152 32.424C55.504 31.752 55.9733 31.2293 56.56 30.856C57.1467 30.472 57.7973 30.28 58.512 30.28C58.9707 30.28 59.392 30.3493 59.776 30.488C60.16 30.6267 60.4907 30.8027 60.768 31.016C61.056 31.2293 61.2747 31.448 61.424 31.672C61.584 31.8853 61.664 32.0667 61.664 32.216L61.088 32.424V28.136C61.088 27.8587 61.1787 27.6293 61.36 27.448C61.5413 27.256 61.7707 27.16 62.048 27.16ZM58.816 37.4C59.2853 37.4 59.696 37.2827 60.048 37.048C60.4 36.8133 60.672 36.4933 60.864 36.088C61.0667 35.6827 61.168 35.2293 61.168 34.728C61.168 34.216 61.0667 33.7573 60.864 33.352C60.672 32.9467 60.4 32.6267 60.048 32.392C59.696 32.1573 59.2853 32.04 58.816 32.04C58.3573 32.04 57.952 32.1573 57.6 32.392C57.248 32.6267 56.9707 32.9467 56.768 33.352C56.576 33.7573 56.48 34.216 56.48 34.728C56.48 35.2293 56.576 35.6827 56.768 36.088C56.9707 36.4933 57.248 36.8133 57.6 37.048C57.952 37.2827 58.3573 37.4 58.816 37.4ZM66.8949 38.024C66.8949 38.3013 66.8042 38.536 66.6229 38.728C66.4415 38.9093 66.2122 39 65.9349 39C65.6575 39 65.4282 38.9093 65.2469 38.728C65.0655 38.536 64.9749 38.3013 64.9749 38.024V31.416C64.9749 31.1387 65.0655 30.9093 65.2469 30.728C65.4282 30.536 65.6575 30.44 65.9349 30.44C66.2122 30.44 66.4415 30.536 66.6229 30.728C66.8042 30.9093 66.8949 31.1387 66.8949 31.416V38.024ZM65.9189 29.4C65.5562 29.4 65.3002 29.3413 65.1509 29.224C65.0015 29.1067 64.9269 28.8987 64.9269 28.6V28.296C64.9269 27.9867 65.0069 27.7787 65.1669 27.672C65.3375 27.5547 65.5935 27.496 65.9349 27.496C66.3082 27.496 66.5695 27.5547 66.7189 27.672C66.8682 27.7893 66.9429 27.9973 66.9429 28.296V28.6C66.9429 28.9093 66.8629 29.1227 66.7029 29.24C66.5429 29.3467 66.2815 29.4 65.9189 29.4ZM72.6761 30.28C73.2841 30.28 73.8121 30.344 74.2601 30.472C74.7188 30.6 75.0708 30.7813 75.3161 31.016C75.5721 31.24 75.7001 31.512 75.7001 31.832C75.7001 32.0453 75.6361 32.248 75.5081 32.44C75.3801 32.6213 75.1935 32.712 74.9481 32.712C74.7775 32.712 74.6335 32.6907 74.5161 32.648C74.4095 32.5947 74.3135 32.5307 74.2281 32.456C74.1428 32.3813 74.0415 32.312 73.9241 32.248C73.8175 32.184 73.6521 32.136 73.4281 32.104C73.2148 32.0613 73.0548 32.04 72.9481 32.04C72.4041 32.04 71.9401 32.1573 71.5561 32.392C71.1828 32.6267 70.8948 32.9467 70.6921 33.352C70.4895 33.7467 70.3881 34.2053 70.3881 34.728C70.3881 35.24 70.4895 35.6987 70.6921 36.104C70.9055 36.4987 71.1935 36.8133 71.5561 37.048C71.9295 37.2827 72.3561 37.4 72.8361 37.4C73.1028 37.4 73.3321 37.384 73.5241 37.352C73.7161 37.32 73.8761 37.272 74.0041 37.208C74.1535 37.1227 74.2868 37.032 74.4041 36.936C74.5215 36.84 74.6975 36.792 74.9321 36.792C75.2095 36.792 75.4228 36.8827 75.5721 37.064C75.7215 37.2347 75.7961 37.448 75.7961 37.704C75.7961 37.9707 75.6468 38.216 75.3481 38.44C75.0495 38.6533 74.6548 38.8293 74.1641 38.968C73.6841 39.096 73.1615 39.16 72.5961 39.16C71.7535 39.16 71.0228 38.968 70.4041 38.584C69.7855 38.1893 69.3055 37.656 68.9641 36.984C68.6335 36.312 68.4681 35.56 68.4681 34.728C68.4681 33.8533 68.6441 33.0853 68.9961 32.424C69.3588 31.752 69.8548 31.2293 70.4841 30.856C71.1241 30.472 71.8548 30.28 72.6761 30.28ZM77.2766 30.6H81.0686C81.3246 30.6 81.538 30.6853 81.7086 30.856C81.8793 31.0267 81.9646 31.24 81.9646 31.496C81.9646 31.7413 81.8793 31.9493 81.7086 32.12C81.538 32.28 81.3246 32.36 81.0686 32.36H77.2766C77.0206 32.36 76.8073 32.2747 76.6366 32.104C76.466 31.9333 76.3806 31.72 76.3806 31.464C76.3806 31.2187 76.466 31.016 76.6366 30.856C76.8073 30.6853 77.0206 30.6 77.2766 30.6ZM78.9886 28.6C79.266 28.6 79.49 28.696 79.6606 28.888C79.842 29.0693 79.9326 29.2987 79.9326 29.576V36.696C79.9326 36.8453 79.9593 36.968 80.0126 37.064C80.0766 37.16 80.1566 37.2293 80.2526 37.272C80.3593 37.3147 80.4713 37.336 80.5886 37.336C80.7166 37.336 80.834 37.3147 80.9406 37.272C81.0473 37.2187 81.17 37.192 81.3086 37.192C81.458 37.192 81.5913 37.2613 81.7086 37.4C81.8366 37.5387 81.9006 37.7307 81.9006 37.976C81.9006 38.2747 81.7353 38.52 81.4046 38.712C81.0846 38.904 80.738 39 80.3646 39C80.1406 39 79.89 38.984 79.6126 38.952C79.346 38.9093 79.09 38.8187 78.8446 38.68C78.61 38.5307 78.4126 38.3067 78.2526 38.008C78.0926 37.7093 78.0126 37.2987 78.0126 36.776V29.576C78.0126 29.2987 78.1033 29.0693 78.2846 28.888C78.4766 28.696 78.7113 28.6 78.9886 28.6ZM85.5355 38.024C85.5355 38.3013 85.4448 38.536 85.2635 38.728C85.0822 38.9093 84.8528 39 84.5755 39C84.2982 39 84.0688 38.9093 83.8875 38.728C83.7062 38.536 83.6155 38.3013 83.6155 38.024V31.416C83.6155 31.1387 83.7062 30.9093 83.8875 30.728C84.0688 30.536 84.2982 30.44 84.5755 30.44C84.8528 30.44 85.0822 30.536 85.2635 30.728C85.4448 30.9093 85.5355 31.1387 85.5355 31.416V38.024ZM84.5595 29.4C84.1968 29.4 83.9408 29.3413 83.7915 29.224C83.6422 29.1067 83.5675 28.8987 83.5675 28.6V28.296C83.5675 27.9867 83.6475 27.7787 83.8075 27.672C83.9782 27.5547 84.2342 27.496 84.5755 27.496C84.9488 27.496 85.2102 27.5547 85.3595 27.672C85.5088 27.7893 85.5835 27.9973 85.5835 28.296V28.6C85.5835 28.9093 85.5035 29.1227 85.3435 29.24C85.1835 29.3467 84.9222 29.4 84.5595 29.4ZM95.8128 34.728C95.8128 35.6027 95.6154 36.376 95.2208 37.048C94.8368 37.7093 94.3141 38.2267 93.6528 38.6C93.0021 38.9733 92.2714 39.16 91.4608 39.16C90.6501 39.16 89.9141 38.9733 89.2528 38.6C88.6021 38.2267 88.0794 37.7093 87.6848 37.048C87.3008 36.376 87.1088 35.6027 87.1088 34.728C87.1088 33.8533 87.3008 33.0853 87.6848 32.424C88.0794 31.752 88.6021 31.2293 89.2528 30.856C89.9141 30.472 90.6501 30.28 91.4608 30.28C92.2714 30.28 93.0021 30.472 93.6528 30.856C94.3141 31.2293 94.8368 31.752 95.2208 32.424C95.6154 33.0853 95.8128 33.8533 95.8128 34.728ZM93.8928 34.728C93.8928 34.184 93.7808 33.7147 93.5568 33.32C93.3434 32.9147 93.0501 32.6 92.6768 32.376C92.3141 32.152 91.9088 32.04 91.4608 32.04C91.0128 32.04 90.6021 32.152 90.2288 32.376C89.8661 32.6 89.5728 32.9147 89.3488 33.32C89.1354 33.7147 89.0288 34.184 89.0288 34.728C89.0288 35.2613 89.1354 35.7307 89.3488 36.136C89.5728 36.5307 89.8661 36.84 90.2288 37.064C90.6021 37.288 91.0128 37.4 91.4608 37.4C91.9088 37.4 92.3141 37.288 92.6768 37.064C93.0501 36.84 93.3434 36.5307 93.5568 36.136C93.7808 35.7307 93.8928 35.2613 93.8928 34.728ZM102.069 30.28C102.858 30.28 103.456 30.4453 103.861 30.776C104.277 31.1067 104.56 31.5493 104.709 32.104C104.869 32.648 104.949 33.256 104.949 33.928V38.024C104.949 38.3013 104.858 38.536 104.677 38.728C104.496 38.9093 104.266 39 103.989 39C103.712 39 103.482 38.9093 103.301 38.728C103.12 38.536 103.029 38.3013 103.029 38.024V33.928C103.029 33.576 102.981 33.2613 102.885 32.984C102.8 32.696 102.64 32.4667 102.405 32.296C102.17 32.1253 101.834 32.04 101.397 32.04C100.97 32.04 100.608 32.1253 100.309 32.296C100.021 32.4667 99.7971 32.696 99.6371 32.984C99.4878 33.2613 99.4131 33.576 99.4131 33.928V38.024C99.4131 38.3013 99.3225 38.536 99.1411 38.728C98.9598 38.9093 98.7305 39 98.4531 39C98.1758 39 97.9465 38.9093 97.7651 38.728C97.5838 38.536 97.4931 38.3013 97.4931 38.024V31.416C97.4931 31.1387 97.5838 30.9093 97.7651 30.728C97.9465 30.536 98.1758 30.44 98.4531 30.44C98.7305 30.44 98.9598 30.536 99.1411 30.728C99.3225 30.9093 99.4131 31.1387 99.4131 31.416V32.104L99.1731 32.056C99.2691 31.8747 99.4078 31.6827 99.5891 31.48C99.7705 31.2667 99.9838 31.0693 100.229 30.888C100.474 30.7067 100.752 30.5627 101.061 30.456C101.37 30.3387 101.706 30.28 102.069 30.28ZM114.032 30.28C114.31 30.28 114.539 30.3707 114.72 30.552C114.902 30.7333 114.992 30.968 114.992 31.256V38.024C114.992 38.3013 114.902 38.536 114.72 38.728C114.539 38.9093 114.31 39 114.032 39C113.755 39 113.526 38.9093 113.344 38.728C113.163 38.536 113.072 38.3013 113.072 38.024V37.24L113.424 37.384C113.424 37.5227 113.35 37.6933 113.2 37.896C113.051 38.088 112.848 38.28 112.592 38.472C112.336 38.664 112.032 38.8293 111.68 38.968C111.339 39.096 110.966 39.16 110.56 39.16C109.824 39.16 109.158 38.9733 108.56 38.6C107.963 38.216 107.488 37.6933 107.136 37.032C106.795 36.36 106.624 35.592 106.624 34.728C106.624 33.8533 106.795 33.0853 107.136 32.424C107.488 31.752 107.958 31.2293 108.544 30.856C109.131 30.472 109.782 30.28 110.496 30.28C110.955 30.28 111.376 30.3493 111.76 30.488C112.144 30.6267 112.475 30.8027 112.752 31.016C113.04 31.2293 113.259 31.448 113.408 31.672C113.568 31.8853 113.648 32.0667 113.648 32.216L113.072 32.424V31.256C113.072 30.9787 113.163 30.7493 113.344 30.568C113.526 30.376 113.755 30.28 114.032 30.28ZM110.8 37.4C111.27 37.4 111.68 37.2827 112.032 37.048C112.384 36.8133 112.656 36.4933 112.848 36.088C113.051 35.6827 113.152 35.2293 113.152 34.728C113.152 34.216 113.051 33.7573 112.848 33.352C112.656 32.9467 112.384 32.6267 112.032 32.392C111.68 32.1573 111.27 32.04 110.8 32.04C110.342 32.04 109.936 32.1573 109.584 32.392C109.232 32.6267 108.955 32.9467 108.752 33.352C108.56 33.7573 108.464 34.216 108.464 34.728C108.464 35.2293 108.56 35.6827 108.752 36.088C108.955 36.4933 109.232 36.8133 109.584 37.048C109.936 37.2827 110.342 37.4 110.8 37.4ZM118.031 39C117.754 39 117.525 38.9093 117.343 38.728C117.162 38.536 117.071 38.3013 117.071 38.024V31.416C117.071 31.1387 117.162 30.9093 117.343 30.728C117.525 30.536 117.754 30.44 118.031 30.44C118.309 30.44 118.538 30.536 118.719 30.728C118.901 30.9093 118.991 31.1387 118.991 31.416V32.92L118.879 31.848C118.997 31.592 119.146 31.368 119.327 31.176C119.519 30.9733 119.733 30.808 119.967 30.68C120.202 30.5413 120.453 30.44 120.719 30.376C120.986 30.312 121.253 30.28 121.519 30.28C121.839 30.28 122.106 30.3707 122.319 30.552C122.543 30.7333 122.655 30.9467 122.655 31.192C122.655 31.544 122.565 31.8 122.383 31.96C122.202 32.1093 122.005 32.184 121.791 32.184C121.589 32.184 121.402 32.1467 121.231 32.072C121.071 31.9973 120.885 31.96 120.671 31.96C120.479 31.96 120.282 32.008 120.079 32.104C119.887 32.1893 119.706 32.328 119.535 32.52C119.375 32.712 119.242 32.952 119.135 33.24C119.039 33.5173 118.991 33.848 118.991 34.232V38.024C118.991 38.3013 118.901 38.536 118.719 38.728C118.538 38.9093 118.309 39 118.031 39ZM130.361 30.44C130.638 30.44 130.867 30.536 131.049 30.728C131.23 30.9093 131.321 31.1387 131.321 31.416V38.216C131.321 39.1973 131.134 39.976 130.761 40.552C130.398 41.1387 129.907 41.56 129.289 41.816C128.67 42.072 127.977 42.2 127.209 42.2C126.867 42.2 126.505 42.1733 126.121 42.12C125.737 42.0667 125.422 41.9867 125.177 41.88C124.857 41.7413 124.633 41.5653 124.505 41.352C124.387 41.1493 124.366 40.9307 124.441 40.696C124.537 40.3867 124.691 40.1733 124.905 40.056C125.118 39.9493 125.342 39.9387 125.577 40.024C125.747 40.0773 125.971 40.1573 126.249 40.264C126.526 40.3813 126.846 40.44 127.209 40.44C127.699 40.44 128.105 40.3707 128.425 40.232C128.755 40.104 129.001 39.88 129.161 39.56C129.331 39.2507 129.417 38.824 129.417 38.28V37.208L129.753 37.592C129.571 37.944 129.342 38.2373 129.065 38.472C128.798 38.696 128.478 38.8667 128.105 38.984C127.731 39.1013 127.305 39.16 126.825 39.16C126.259 39.16 125.763 39.032 125.337 38.776C124.921 38.5093 124.595 38.1467 124.361 37.688C124.126 37.2187 124.009 36.6853 124.009 36.088V31.416C124.009 31.1387 124.099 30.9093 124.281 30.728C124.462 30.536 124.691 30.44 124.969 30.44C125.246 30.44 125.475 30.536 125.657 30.728C125.838 30.9093 125.929 31.1387 125.929 31.416V35.512C125.929 36.2053 126.078 36.696 126.377 36.984C126.686 37.2613 127.113 37.4 127.657 37.4C128.03 37.4 128.345 37.3307 128.601 37.192C128.857 37.0427 129.054 36.8293 129.193 36.552C129.331 36.264 129.401 35.9173 129.401 35.512V31.416C129.401 31.1387 129.491 30.9093 129.673 30.728C129.854 30.536 130.083 30.44 130.361 30.44Z" fill="#F2554C"/>
<path d="M25 10C26.875 10 28.5 11.625 28.5 13.5V38.5C28.5 40.4375 26.875 42 25 42C23.1875 42 21.6875 40.6875 21.5 38.875C21.1875 39 20.8125 39 20.5 39C18.25 39 16.5 37.25 16.5 35C16.5 34.5625 16.5625 34.125 16.6875 33.6875C14.8125 33 13.5 31.1875 13.5 29C13.5 27.0625 14.625 25.3125 16.3125 24.5C15.8125 23.8125 15.5 22.9375 15.5 22C15.5 20.125 16.8125 18.5 18.625 18.125C18.5 17.75 18.5 17.375 18.5 17C18.5 15.1875 19.75 13.5625 21.5 13.125C21.6875 11.375 23.1875 10 25 10ZM34 10C35.75 10 37.25 11.375 37.4375 13.125C39.1875 13.5625 40.5 15.125 40.5 17C40.5 17.375 40.4375 17.75 40.3125 18.125C42.125 18.5 43.5 20.125 43.5 22C43.5 22.9375 43.125 23.8125 42.625 24.5C44.3125 25.3125 45.5 27.0625 45.5 29C45.5 31.1875 44.125 33 42.25 33.6875C42.375 34.125 42.5 34.5625 42.5 35C42.5 37.25 40.6875 39 38.5 39C38.125 39 37.75 39 37.4375 38.875C37.25 40.6875 35.75 42 34 42C32.0625 42 30.5 40.4375 30.5 38.5V13.5C30.5 11.625 32.0625 10 34 10Z" fill="#F2554C"/>
</svg>
