<svg width="40" height="40" viewBox="0 0 40 40" fill="none" xmlns="http://www.w3.org/2000/svg">
<path d="M14.375 0C16.7188 0 18.75 2.03125 18.75 4.375V35.625C18.75 38.0469 16.7188 40 14.375 40C12.1094 40 10.2344 38.3594 10 36.0938C9.60938 36.25 9.14062 36.25 8.75 36.25C5.9375 36.25 3.75 34.0625 3.75 31.25C3.75 30.7031 3.82812 30.1562 3.98438 29.6094C1.64062 28.75 0 26.4844 0 23.75C0 21.3281 1.40625 19.1406 3.51562 18.125C2.89062 17.2656 2.5 16.1719 2.5 15C2.5 12.6562 4.14062 10.625 6.40625 10.1562C6.25 9.6875 6.25 9.21875 6.25 8.75C6.25 6.48438 7.8125 4.45312 10 3.90625C10.2344 1.71875 12.1094 0 14.375 0ZM25.625 0C27.8125 0 29.6875 1.71875 29.9219 3.90625C32.1094 4.45312 33.75 6.40625 33.75 8.75C33.75 9.21875 33.6719 9.6875 33.5156 10.1562C35.7812 10.625 37.5 12.6562 37.5 15C37.5 16.1719 37.0312 17.2656 36.4062 18.125C38.5156 19.1406 40 21.3281 40 23.75C40 26.4844 38.2812 28.75 35.9375 29.6094C36.0938 30.1562 36.25 30.7031 36.25 31.25C36.25 34.0625 33.9844 36.25 31.25 36.25C30.7812 36.25 30.3125 36.25 29.9219 36.0938C29.6875 38.3594 27.8125 40 25.625 40C23.2031 40 21.25 38.0469 21.25 35.625V4.375C21.25 2.03125 23.2031 0 25.625 0Z" fill="#F2554C"/>
</svg>
