<svg width="577" height="477" viewBox="0 0 577 477" fill="none" xmlns="http://www.w3.org/2000/svg">
<mask id="mask0_5_79" style="mask-type:alpha" maskUnits="userSpaceOnUse" x="-68" y="-25" width="729" height="558">
<path d="M-67.442 268.064L531.325 -24.2065L660.23 240.298L61.463 532.569L-67.442 268.064Z" fill="#0353A7" fill-opacity="0.640625"/>
</mask>
<g mask="url(#mask0_5_79)">
<path fill-rule="evenodd" clip-rule="evenodd" d="M533.634 8.52624C533.175 8.27589 532.713 8.02753 532.244 7.78699C482.852 -17.7201 425.206 27.6224 395.89 64.8771C376.4 89.6423 365.392 119.513 349.243 146.327C331.252 176.199 304.454 197.219 273.168 212.051C245.808 225.022 216.444 232.63 188.119 242.889C159.039 253.424 130.652 265.87 103.211 280.149C71.7833 296.504 38.712 315.778 17.3351 344.926C-6.56961 377.522 -5.28989 419.032 26.9046 445.1C55.9182 468.592 98.4123 478.705 135.213 475.733C185.277 471.686 233.079 451.414 276.385 426.917C322.833 400.651 369.019 373.625 412.074 341.955C421.438 335.068 430.528 327.86 439.679 320.699C510.46 265.289 584.189 185.037 575.503 88.0048C574.19 73.323 570.766 58.8557 565.268 45.18C559.216 30.1215 548.001 16.3964 533.634 8.52624Z" fill="#0353A7" fill-opacity="0.640625"/>
</g>
<path d="M269.616 244.882L284.822 260.097L327.371 219.972C312.717 214.363 284.182 230.263 269.616 244.882Z" fill="#263238"/>
<path d="M322.626 297.882L307.332 282.667L347.431 240.068C353.103 254.731 337.191 283.307 322.626 297.882Z" fill="#263238"/>
<path d="M380.799 202.04L397.373 170.042L365.417 186.648C355.151 191.939 345.667 198.628 337.235 206.523L282.747 257.977L309.539 284.875L360.827 230.351C368.766 221.888 375.488 212.36 380.799 202.04Z" fill="#407BFF"/>
<path opacity="0.6" d="M380.799 202.04L397.373 170.042L365.417 186.648C355.151 191.939 345.667 198.628 337.235 206.523L282.747 257.977L309.539 284.875L360.827 230.351C368.766 221.888 375.488 212.36 380.799 202.04Z" fill="white"/>
<path d="M346.747 231.919C352.939 231.919 357.958 226.897 357.958 220.701C357.958 214.505 352.939 209.482 346.747 209.482C340.555 209.482 335.536 214.505 335.536 220.701C335.536 226.897 340.555 231.919 346.747 231.919Z" fill="white"/>
<path d="M346.747 227.9C350.721 227.9 353.942 224.677 353.942 220.701C353.942 216.725 350.721 213.502 346.747 213.502C342.774 213.502 339.553 216.725 339.553 220.701C339.553 224.677 342.774 227.9 346.747 227.9Z" fill="#407BFF"/>
<path opacity="0.3" d="M318.565 275.136L292.347 248.901L313.82 228.695L338.78 253.671L318.565 275.136Z" fill="#407BFF"/>
<path d="M275.553 268.887C255.933 270.477 249.423 283.042 247.194 299.803C246.068 308.327 245.561 316.962 238.366 321.887C237.464 322.48 237.068 323.603 237.397 324.632C237.726 325.661 238.7 326.344 239.779 326.303C266.129 325.486 278.422 312.567 279.966 307.179C279.555 310.002 278.814 312.766 277.76 315.416C277.383 316.377 277.66 317.472 278.45 318.137C279.239 318.802 280.364 318.889 281.246 318.353C288.64 313.716 297.908 305.103 298.526 291.345C293.186 283.638 275.553 268.887 275.553 268.887Z" fill="#F2554C"/>
<path opacity="0.2" d="M275.553 268.887C255.933 270.477 249.423 283.042 247.194 299.803C246.068 308.327 245.561 316.962 238.366 321.887C237.464 322.48 237.068 323.603 237.397 324.632C237.726 325.661 238.7 326.344 239.779 326.303C266.129 325.486 278.422 312.567 279.966 307.179C279.555 310.002 278.814 312.766 277.76 315.416C277.383 316.377 277.66 317.472 278.45 318.137C279.239 318.802 280.364 318.889 281.246 318.353C288.64 313.716 297.908 305.103 298.526 291.345C293.186 283.638 275.553 268.887 275.553 268.887Z" fill="#F2554C"/>
<path d="M301.66 297.286L270.212 265.817L286.962 262.195L305.279 280.525L301.66 297.286Z" fill="#407BFF"/>
<path fill-rule="evenodd" clip-rule="evenodd" d="M158.572 292.183C157.885 292.039 157.175 291.994 156.476 291.984C156.235 291.981 155.991 291.975 155.75 291.969C155.741 291.359 155.713 290.748 155.67 290.14C155.591 289.13 155.457 287.426 154.273 287.084C154.096 287.032 153.574 288.941 153.535 289.133C153.388 289.817 153.346 290.528 153.333 291.23C153.33 291.472 153.324 291.713 153.318 291.957C152.741 291.969 152.162 291.994 151.588 292.064C150.584 292.183 148.784 292.229 148.436 293.428C148.385 293.603 150.288 294.125 150.484 294.164C151.396 294.36 152.363 294.372 153.306 294.387C153.318 294.967 153.346 295.544 153.416 296.121C153.535 297.123 153.577 298.924 154.776 299.272C154.95 299.324 155.472 297.419 155.515 297.226C155.71 296.311 155.719 295.346 155.734 294.402C156.348 294.393 156.955 294.366 157.565 294.32C158.572 294.244 160.274 294.106 160.619 292.922C160.668 292.748 158.761 292.223 158.572 292.183Z" fill="#D5D5FD"/>
<path fill-rule="evenodd" clip-rule="evenodd" d="M288.779 161.891C288.092 161.748 287.381 161.702 286.683 161.693C286.442 161.69 286.198 161.684 285.957 161.677C285.947 161.067 285.92 160.456 285.877 159.849C285.798 158.838 285.664 157.135 284.48 156.793C284.303 156.741 283.781 158.649 283.742 158.841C283.595 159.525 283.552 160.236 283.54 160.939C283.537 161.18 283.531 161.421 283.525 161.665C282.948 161.677 282.369 161.702 281.795 161.772C280.791 161.891 278.991 161.937 278.643 163.137C278.592 163.311 280.495 163.833 280.691 163.873C281.603 164.068 282.57 164.08 283.513 164.095C283.525 164.676 283.552 165.253 283.623 165.83C283.742 166.831 283.784 168.632 284.983 168.98C285.157 169.032 285.679 167.127 285.722 166.935C285.917 166.019 285.926 165.054 285.941 164.111C286.555 164.102 287.162 164.074 287.772 164.028C288.779 163.952 290.481 163.815 290.826 162.63C290.875 162.456 288.968 161.931 288.779 161.891Z" fill="#D5D5FD"/>
<path d="M406.252 312.744C419.428 312.744 430.109 302.056 430.109 288.872C430.109 275.688 419.428 265 406.252 265C393.077 265 382.396 275.688 382.396 288.872C382.396 302.056 393.077 312.744 406.252 312.744Z" fill="#407BFF"/>
<path opacity="0.7" d="M406.252 312.744C419.428 312.744 430.109 302.056 430.109 288.872C430.109 275.688 419.428 265 406.252 265C393.077 265 382.396 275.688 382.396 288.872C382.396 302.056 393.077 312.744 406.252 312.744Z" fill="white"/>
<path opacity="0.2" d="M398.043 270.874C394.796 270.856 391.58 271.51 388.597 272.795C381.022 281.106 380.272 293.582 386.798 302.741C393.324 311.9 405.354 315.258 415.676 310.801C422.005 303.802 423.624 293.731 419.807 285.1C415.99 276.468 407.453 270.894 398.021 270.874H398.043Z" fill="#407BFF"/>
<path opacity="0.2" d="M395.659 277.168C395.659 278.388 394.671 279.376 393.453 279.376C392.234 279.376 391.246 278.388 391.246 277.168C391.246 275.948 392.234 274.96 393.453 274.96C394.671 274.96 395.659 275.948 395.659 277.168Z" fill="#407BFF"/>
<path opacity="0.2" d="M421.281 275.004C421.281 276.223 420.293 277.212 419.075 277.212C417.856 277.212 416.868 276.223 416.868 275.004C416.868 273.784 417.856 272.795 419.075 272.795C420.293 272.795 421.281 273.784 421.281 275.004Z" fill="#407BFF"/>
<path opacity="0.2" d="M416.868 290.55C416.868 292.526 415.267 294.128 413.292 294.128C411.318 294.128 409.717 292.526 409.717 290.55C409.717 288.575 411.318 286.973 413.292 286.973C415.267 286.973 416.868 288.575 416.868 290.55Z" fill="#407BFF"/>
<path opacity="0.2" d="M405.612 300.687C405.612 302.616 404.451 304.355 402.67 305.094C400.888 305.832 398.838 305.424 397.475 304.06C396.111 302.695 395.704 300.644 396.441 298.861C397.179 297.079 398.917 295.917 400.846 295.917C402.112 295.911 403.327 296.411 404.223 297.307C405.118 298.203 405.618 299.42 405.612 300.687Z" fill="#407BFF"/>
<path fill-rule="evenodd" clip-rule="evenodd" d="M354.986 305.433C354.299 305.289 353.588 305.244 352.89 305.234C352.649 305.231 352.404 305.225 352.163 305.219C352.154 304.609 352.127 303.998 352.084 303.39C352.005 302.38 351.871 300.676 350.687 300.334C350.51 300.282 349.988 302.191 349.948 302.383C349.802 303.067 349.759 303.778 349.747 304.48C349.744 304.722 349.738 304.963 349.732 305.207C349.155 305.219 348.575 305.244 348.002 305.314C346.998 305.433 345.198 305.479 344.85 306.678C344.798 306.853 346.702 307.375 346.897 307.414C347.81 307.61 348.777 307.622 349.72 307.637C349.732 308.217 349.759 308.794 349.829 309.371C349.948 310.373 349.991 312.174 351.19 312.522C351.364 312.574 351.886 310.669 351.929 310.476C352.124 309.561 352.133 308.596 352.148 307.652C352.761 307.643 353.369 307.616 353.979 307.57C354.986 307.494 356.688 307.356 357.033 306.172C357.082 305.998 355.175 305.473 354.986 305.433Z" fill="#D5D5FD"/>
<path fill-rule="evenodd" clip-rule="evenodd" d="M275.383 207.653C273.356 208.342 274.217 211.734 276.271 211.561C276.695 211.523 277.105 211.323 277.424 211.031L277.647 210.899C279.288 209.6 276.905 207.138 275.383 207.653Z" fill="white"/>
<path fill-rule="evenodd" clip-rule="evenodd" d="M370.28 145.82C368.253 146.508 369.114 149.9 371.168 149.727C371.592 149.69 372.002 149.49 372.32 149.198L372.544 149.066C374.185 147.767 371.802 145.304 370.28 145.82Z" fill="white"/>
<path fill-rule="evenodd" clip-rule="evenodd" d="M398.969 234.153C396.942 234.842 397.803 238.234 399.857 238.061C400.281 238.023 400.691 237.823 401.01 237.531L401.234 237.399C402.874 236.1 400.491 233.638 398.969 234.153Z" fill="white"/>
</svg>
