<svg width="1103" height="790" viewBox="0 0 1103 790" fill="none" xmlns="http://www.w3.org/2000/svg">
<mask id="mask0_219_37" style="mask-type:alpha" maskUnits="userSpaceOnUse" x="1" y="-53" width="1175" height="917">
<path d="M1.63177 508.654L969.734 -52.4475L1175.53 302.727L207.426 863.828L1.63177 508.654Z" fill="#0F3F75"/>
</mask>
<g mask="url(#mask0_219_37)">
<path fill-rule="evenodd" clip-rule="evenodd" d="M1037.64 75.7535C1031.58 38.5229 999.659 6.76514 962.135 1.72561C936.494 -1.72118 910.198 5.29928 887.553 17.8065C850.033 38.528 822.217 72.9014 793.424 103.783C763.974 135.374 733.888 166.477 701.596 195.199C646.619 244.095 583.745 278.691 513.855 301.215C389.804 341.195 246.555 344.991 142.716 432.528C139.595 435.158 136.517 437.85 133.509 440.609C132.492 441.539 131.479 442.476 130.479 443.419C79.9206 490.909 48.5563 566.617 76.1008 634.823C97.3255 687.386 151.441 713.923 205.518 715.431C330.838 718.925 460.509 702.725 574.653 648.666C673.847 601.685 756.879 527.517 825.831 442.967C882.593 373.358 932.026 297.606 980.688 222.224C1008.16 179.662 1045.2 132.014 1037.97 77.9867C1037.87 77.2405 1037.76 76.4916 1037.64 75.7535Z" fill="#0F3F75"/>
</g>
<path d="M412.261 610.896C451.668 605.993 479.639 570.068 474.735 530.655C469.831 491.242 433.91 463.267 394.502 468.17C355.095 473.073 327.124 508.998 332.028 548.411C336.932 587.824 372.853 615.799 412.261 610.896Z" fill="#407BFF"/>
<path opacity="0.3" d="M412.261 610.896C451.668 605.993 479.639 570.068 474.735 530.655C469.831 491.242 433.91 463.267 394.502 468.17C355.095 473.073 327.124 508.998 332.028 548.411C336.932 587.824 372.853 615.799 412.261 610.896Z" fill="white"/>
<path opacity="0.4" d="M441.589 478.667C407.845 473.041 374.815 491.985 362.626 523.953C350.438 555.921 362.47 592.052 391.391 610.327C425.199 616.018 458.321 597.046 470.52 565.002C482.719 532.959 470.601 496.758 441.571 478.518L441.589 478.667Z" fill="#407BFF"/>
<path d="M337.958 569.417C266.241 614.744 326.489 635.323 429.032 583.372C523.991 535.267 556.27 485.501 468.958 510.572C476.076 528.717 357.623 592.709 337.958 569.417Z" fill="#F2554C"/>
<path fill-rule="evenodd" clip-rule="evenodd" d="M593.39 467.2C592.205 467.103 591.001 467.174 589.824 467.305C589.418 467.35 589.006 467.391 588.6 467.431C588.457 466.407 588.283 465.387 588.084 464.375C587.739 462.693 587.158 459.858 585.096 459.532C584.787 459.481 584.309 462.797 584.283 463.129C584.179 464.308 584.256 465.513 584.383 466.695C584.428 467.101 584.468 467.508 584.509 467.92C583.542 468.061 582.572 468.223 581.623 468.461C579.96 468.871 576.943 469.325 576.609 471.414C576.558 471.717 579.868 472.196 580.205 472.222C581.78 472.359 583.408 472.177 584.996 472.006C585.138 472.978 585.305 473.942 585.544 474.897C585.953 476.555 586.402 479.573 588.49 479.907C588.794 479.958 589.272 476.647 589.304 476.315C589.441 474.735 589.255 473.112 589.083 471.524C590.112 471.38 591.127 471.207 592.144 471.002C593.82 470.663 596.654 470.076 596.986 468.013C597.032 467.711 593.716 467.227 593.39 467.2Z" fill="#D5D5FD"/>
<path fill-rule="evenodd" clip-rule="evenodd" d="M560.481 568.229C557.217 569.81 559.374 575.33 562.791 574.609C563.496 574.458 564.143 574.036 564.618 573.479L564.967 573.21C567.453 570.684 562.932 567.044 560.481 568.229Z" fill="white"/>
<path fill-rule="evenodd" clip-rule="evenodd" d="M491.911 441.095C488.647 442.676 490.804 448.196 494.221 447.476C494.926 447.324 495.574 446.902 496.048 446.345L496.397 446.076C498.884 443.55 494.362 439.911 491.911 441.095Z" fill="white"/>
<path fill-rule="evenodd" clip-rule="evenodd" d="M702.933 441.219C699.669 442.8 701.825 448.32 705.243 447.599C705.947 447.448 706.595 447.026 707.07 446.469L707.418 446.2C709.905 443.674 705.384 440.034 702.933 441.219Z" fill="white"/>
<path fill-rule="evenodd" clip-rule="evenodd" d="M423.991 680.469C422.807 680.372 421.602 680.444 420.425 680.574C420.019 680.62 419.608 680.66 419.201 680.701C419.058 679.676 418.884 678.656 418.686 677.644C418.341 675.962 417.759 673.128 415.697 672.801C415.389 672.751 414.911 676.066 414.884 676.398C414.781 677.578 414.858 678.782 414.984 679.965C415.029 680.37 415.07 680.777 415.11 681.189C414.143 681.33 413.174 681.492 412.224 681.73C410.561 682.14 407.544 682.594 407.21 684.683C407.16 684.986 410.47 685.465 410.806 685.491C412.381 685.629 414.01 685.447 415.598 685.275C415.74 686.247 415.907 687.211 416.145 688.166C416.555 689.824 417.003 692.842 419.092 693.176C419.395 693.227 419.874 689.917 419.906 689.584C420.042 688.004 419.856 686.381 419.684 684.793C420.714 684.649 421.729 684.476 422.745 684.271C424.422 683.932 427.256 683.345 427.588 681.283C427.633 680.98 424.317 680.496 423.991 680.469Z" fill="#D5D5FD"/>
</svg>
