<svg width="90" height="90" viewBox="0 0 90 90" fill="none" xmlns="http://www.w3.org/2000/svg">
<path fill-rule="evenodd" clip-rule="evenodd" d="M25.3125 25.8351H30.6566C31.1842 25.8351 31.7067 25.9391 32.1941 26.141C32.6816 26.3429 33.1245 26.6389 33.4976 27.0119C33.8707 27.385 34.1667 27.828 34.3686 28.3154C34.5705 28.8029 34.6744 29.3254 34.6744 29.853V45.4423H45.1209V51.0673H33.0673C32.0017 51.0673 30.9797 50.644 30.2262 49.8905C29.4727 49.137 29.0494 48.115 29.0494 47.0494V31.4601H25.3125V25.8351ZM66.1744 29.853V34.0316H60.5494V31.4601H56.1291V51.0673H50.5041V31.4601H46.0851V34.0316H40.4601V29.853C40.4601 28.7874 40.8835 27.7654 41.6369 27.0119C42.3904 26.2585 43.4124 25.8351 44.478 25.8351H62.1566C63.2222 25.8351 64.2441 26.2585 64.9976 27.0119C65.7511 27.7654 66.1744 28.7874 66.1744 29.853Z" fill="#183153"/>
<path d="M22.7052 66.1538L17.4736 62.4176C19.0101 60.2659 20.596 58.6016 22.2642 57.4335C24.1182 56.1362 26.0879 55.4464 28.1251 55.4464C30.0164 55.4464 31.6551 55.9054 33.1188 56.7836C33.7165 57.1465 34.2793 57.564 34.7999 58.0307C35.1786 58.3637 35.4486 58.626 36.0233 59.2007C36.8943 60.0711 37.2556 60.3906 37.6889 60.6503C38.1588 60.9326 38.6551 61.0714 39.3751 61.0714C40.0958 61.0714 40.594 60.9319 41.0665 60.6491C41.5017 60.3887 41.8668 60.0673 42.7379 59.1981L42.7456 59.1904C43.3178 58.6196 43.5903 58.3553 43.9683 58.0223C44.4882 57.5574 45.0499 57.1414 45.6462 56.7797C47.1074 55.9041 48.7409 55.4464 50.6251 55.4464C52.5093 55.4464 54.1428 55.9041 55.6041 56.7797C56.1929 57.1333 56.7342 57.5402 57.2819 58.0223C57.6606 58.3553 57.9331 58.6196 58.5046 59.1904L58.513 59.1981C59.3834 60.0673 59.7486 60.3887 60.1838 60.6491C60.6563 60.9319 61.1545 61.0714 61.8751 61.0714C62.5167 61.0714 63.2251 60.8233 64.0499 60.246C65.0605 59.5388 66.1533 58.3907 67.2951 56.7926L72.5266 60.5288C70.9896 62.6805 69.4043 64.3448 67.7361 65.5129C65.8821 66.8102 63.9123 67.5 61.8751 67.5C59.9845 67.5 58.3458 67.0416 56.8808 66.1641C56.2823 65.8017 55.7187 65.3846 55.1971 64.9183C54.8178 64.5846 54.5446 64.3204 53.9718 63.7483L53.9635 63.7399C53.095 62.8733 52.7311 62.5532 52.2985 62.2935C51.8305 62.0132 51.3381 61.875 50.6251 61.875C49.9122 61.875 49.4198 62.0132 48.9518 62.2935C48.5191 62.5532 48.1553 62.8733 47.2868 63.7399L47.2791 63.7483C46.7056 64.3204 46.4324 64.5846 46.0531 64.9183C45.5035 65.4017 44.9603 65.8106 44.3688 66.1641C42.9044 67.0416 41.2664 67.5 39.3751 67.5C37.4838 67.5 35.8458 67.041 34.3814 66.1628C33.7839 65.8 33.2211 65.3827 32.7003 64.9163C32.3223 64.5827 32.0517 64.3204 31.4776 63.7463C30.6066 62.8753 30.2446 62.5558 29.8113 62.2961C29.3414 62.0138 28.8451 61.875 28.1251 61.875C27.4836 61.875 26.7751 62.1231 25.9503 62.7004C24.9398 63.4076 23.8469 64.5557 22.7052 66.1538Z" fill="#239AFF"/>
</svg>
